<mxfile host="app.diagrams.net" agent="Mozilla/5.0 (Windows NT 10.0; Win64; x64) AppleWebKit/537.36 (KHTML, like Gecko) Chrome/131.0.0.0 Safari/537.36" version="25.0.3">
  <diagram name="Página-1" id="3XxkAN2kKUEt1WK80A01">
    <mxGraphModel dx="666" dy="420" grid="1" gridSize="10" guides="1" tooltips="1" connect="1" arrows="1" fold="1" page="1" pageScale="1" pageWidth="827" pageHeight="1169" math="0" shadow="0">
      <root>
        <mxCell id="0" />
        <mxCell id="1" parent="0" />
        <mxCell id="u115hhWgSmVxxLvwGNtN-1" value="INICIO" style="ellipse;whiteSpace=wrap;html=1;" vertex="1" parent="1">
          <mxGeometry x="260" y="10" width="120" height="80" as="geometry" />
        </mxCell>
        <mxCell id="u115hhWgSmVxxLvwGNtN-2" value="FIM" style="ellipse;whiteSpace=wrap;html=1;" vertex="1" parent="1">
          <mxGeometry x="277" y="1120" width="120" height="80" as="geometry" />
        </mxCell>
        <mxCell id="u115hhWgSmVxxLvwGNtN-3" value="NOME" style="html=1;strokeWidth=2;shape=manualInput;whiteSpace=wrap;rounded=1;size=26;arcSize=11;" vertex="1" parent="1">
          <mxGeometry x="260" y="120" width="100" height="60" as="geometry" />
        </mxCell>
        <mxCell id="u115hhWgSmVxxLvwGNtN-4" value="NOTA1" style="html=1;strokeWidth=2;shape=manualInput;whiteSpace=wrap;rounded=1;size=26;arcSize=11;" vertex="1" parent="1">
          <mxGeometry x="260" y="220" width="100" height="60" as="geometry" />
        </mxCell>
        <mxCell id="u115hhWgSmVxxLvwGNtN-5" value="NOTA2" style="html=1;strokeWidth=2;shape=manualInput;whiteSpace=wrap;rounded=1;size=26;arcSize=11;" vertex="1" parent="1">
          <mxGeometry x="260" y="320" width="100" height="60" as="geometry" />
        </mxCell>
        <mxCell id="u115hhWgSmVxxLvwGNtN-6" value="MEDIA = (NOTA1 + NOTA2) / 2" style="rounded=1;whiteSpace=wrap;html=1;absoluteArcSize=1;arcSize=14;strokeWidth=2;" vertex="1" parent="1">
          <mxGeometry x="221" y="430" width="220" height="50" as="geometry" />
        </mxCell>
        <mxCell id="u115hhWgSmVxxLvwGNtN-7" value="NOME&lt;div&gt;NOTA1&lt;/div&gt;&lt;div&gt;NOTA2&lt;/div&gt;&lt;div&gt;MEDIA&lt;/div&gt;" style="strokeWidth=2;html=1;shape=mxgraph.flowchart.display;whiteSpace=wrap;" vertex="1" parent="1">
          <mxGeometry x="252" y="521" width="140" height="85" as="geometry" />
        </mxCell>
        <mxCell id="u115hhWgSmVxxLvwGNtN-8" value="MEDIA&amp;nbsp; &amp;gt;= 7" style="strokeWidth=2;html=1;shape=mxgraph.flowchart.decision;whiteSpace=wrap;" vertex="1" parent="1">
          <mxGeometry x="272" y="650" width="100" height="100" as="geometry" />
        </mxCell>
        <mxCell id="u115hhWgSmVxxLvwGNtN-9" value="APROVADO" style="strokeWidth=2;html=1;shape=mxgraph.flowchart.display;whiteSpace=wrap;" vertex="1" parent="1">
          <mxGeometry x="450" y="720" width="100" height="60" as="geometry" />
        </mxCell>
        <mxCell id="u115hhWgSmVxxLvwGNtN-10" style="edgeStyle=orthogonalEdgeStyle;rounded=0;orthogonalLoop=1;jettySize=auto;html=1;exitX=1;exitY=0.5;exitDx=0;exitDy=0;exitPerimeter=0;entryX=0.592;entryY=-0.007;entryDx=0;entryDy=0;entryPerimeter=0;" edge="1" parent="1" source="u115hhWgSmVxxLvwGNtN-8" target="u115hhWgSmVxxLvwGNtN-9">
          <mxGeometry relative="1" as="geometry" />
        </mxCell>
        <mxCell id="u115hhWgSmVxxLvwGNtN-11" value="SIM" style="edgeLabel;html=1;align=center;verticalAlign=middle;resizable=0;points=[];" vertex="1" connectable="0" parent="u115hhWgSmVxxLvwGNtN-10">
          <mxGeometry x="-0.1094" relative="1" as="geometry">
            <mxPoint as="offset" />
          </mxGeometry>
        </mxCell>
        <mxCell id="u115hhWgSmVxxLvwGNtN-15" value="RECUPERAÇÃO" style="strokeWidth=2;html=1;shape=mxgraph.flowchart.display;whiteSpace=wrap;" vertex="1" parent="1">
          <mxGeometry x="230" y="860" width="100" height="60" as="geometry" />
        </mxCell>
        <mxCell id="u115hhWgSmVxxLvwGNtN-16" value="MEDIA&amp;nbsp; &amp;gt;= 2" style="strokeWidth=2;html=1;shape=mxgraph.flowchart.decision;whiteSpace=wrap;" vertex="1" parent="1">
          <mxGeometry x="130" y="750" width="100" height="100" as="geometry" />
        </mxCell>
        <mxCell id="u115hhWgSmVxxLvwGNtN-17" value="REPROVADO" style="strokeWidth=2;html=1;shape=mxgraph.flowchart.display;whiteSpace=wrap;" vertex="1" parent="1">
          <mxGeometry x="30" y="860" width="100" height="60" as="geometry" />
        </mxCell>
        <mxCell id="u115hhWgSmVxxLvwGNtN-18" style="edgeStyle=orthogonalEdgeStyle;rounded=0;orthogonalLoop=1;jettySize=auto;html=1;exitX=0;exitY=0.5;exitDx=0;exitDy=0;exitPerimeter=0;entryX=0.5;entryY=0;entryDx=0;entryDy=0;entryPerimeter=0;" edge="1" parent="1" source="u115hhWgSmVxxLvwGNtN-8" target="u115hhWgSmVxxLvwGNtN-16">
          <mxGeometry relative="1" as="geometry" />
        </mxCell>
        <mxCell id="u115hhWgSmVxxLvwGNtN-19" value="NÃO" style="edgeLabel;html=1;align=center;verticalAlign=middle;resizable=0;points=[];" vertex="1" connectable="0" parent="u115hhWgSmVxxLvwGNtN-18">
          <mxGeometry x="-0.335" relative="1" as="geometry">
            <mxPoint as="offset" />
          </mxGeometry>
        </mxCell>
        <mxCell id="u115hhWgSmVxxLvwGNtN-20" style="edgeStyle=orthogonalEdgeStyle;rounded=0;orthogonalLoop=1;jettySize=auto;html=1;exitX=1;exitY=0.5;exitDx=0;exitDy=0;exitPerimeter=0;entryX=0.5;entryY=0;entryDx=0;entryDy=0;entryPerimeter=0;" edge="1" parent="1" source="u115hhWgSmVxxLvwGNtN-16" target="u115hhWgSmVxxLvwGNtN-15">
          <mxGeometry relative="1" as="geometry" />
        </mxCell>
        <mxCell id="u115hhWgSmVxxLvwGNtN-23" value="SIM" style="edgeLabel;html=1;align=center;verticalAlign=middle;resizable=0;points=[];" vertex="1" connectable="0" parent="u115hhWgSmVxxLvwGNtN-20">
          <mxGeometry x="-0.6945" relative="1" as="geometry">
            <mxPoint as="offset" />
          </mxGeometry>
        </mxCell>
        <mxCell id="u115hhWgSmVxxLvwGNtN-21" style="edgeStyle=orthogonalEdgeStyle;rounded=0;orthogonalLoop=1;jettySize=auto;html=1;exitX=0;exitY=0.5;exitDx=0;exitDy=0;exitPerimeter=0;entryX=0.5;entryY=0;entryDx=0;entryDy=0;entryPerimeter=0;" edge="1" parent="1" source="u115hhWgSmVxxLvwGNtN-16" target="u115hhWgSmVxxLvwGNtN-17">
          <mxGeometry relative="1" as="geometry" />
        </mxCell>
        <mxCell id="u115hhWgSmVxxLvwGNtN-22" value="NÃO" style="edgeLabel;html=1;align=center;verticalAlign=middle;resizable=0;points=[];" vertex="1" connectable="0" parent="u115hhWgSmVxxLvwGNtN-21">
          <mxGeometry x="-0.5236" y="-1" relative="1" as="geometry">
            <mxPoint as="offset" />
          </mxGeometry>
        </mxCell>
        <mxCell id="u115hhWgSmVxxLvwGNtN-26" style="edgeStyle=orthogonalEdgeStyle;rounded=0;orthogonalLoop=1;jettySize=auto;html=1;exitX=0.5;exitY=1;exitDx=0;exitDy=0;exitPerimeter=0;entryX=0.5;entryY=0;entryDx=0;entryDy=0;" edge="1" parent="1" source="u115hhWgSmVxxLvwGNtN-24" target="u115hhWgSmVxxLvwGNtN-2">
          <mxGeometry relative="1" as="geometry">
            <mxPoint x="335" y="1110" as="targetPoint" />
          </mxGeometry>
        </mxCell>
        <mxCell id="u115hhWgSmVxxLvwGNtN-24" value="" style="verticalLabelPosition=bottom;verticalAlign=top;html=1;shape=mxgraph.flowchart.on-page_reference;" vertex="1" parent="1">
          <mxGeometry x="320" y="1030" width="35" height="30" as="geometry" />
        </mxCell>
        <mxCell id="u115hhWgSmVxxLvwGNtN-25" style="edgeStyle=orthogonalEdgeStyle;rounded=0;orthogonalLoop=1;jettySize=auto;html=1;exitX=0.5;exitY=1;exitDx=0;exitDy=0;exitPerimeter=0;entryX=1;entryY=0.5;entryDx=0;entryDy=0;entryPerimeter=0;" edge="1" parent="1" source="u115hhWgSmVxxLvwGNtN-9" target="u115hhWgSmVxxLvwGNtN-24">
          <mxGeometry relative="1" as="geometry" />
        </mxCell>
        <mxCell id="u115hhWgSmVxxLvwGNtN-29" value="" style="verticalLabelPosition=bottom;verticalAlign=top;html=1;shape=mxgraph.flowchart.on-page_reference;" vertex="1" parent="1">
          <mxGeometry x="150" y="990" width="35" height="30" as="geometry" />
        </mxCell>
        <mxCell id="u115hhWgSmVxxLvwGNtN-30" style="edgeStyle=orthogonalEdgeStyle;rounded=0;orthogonalLoop=1;jettySize=auto;html=1;exitX=0.5;exitY=1;exitDx=0;exitDy=0;exitPerimeter=0;entryX=1;entryY=0.5;entryDx=0;entryDy=0;entryPerimeter=0;" edge="1" parent="1" source="u115hhWgSmVxxLvwGNtN-15" target="u115hhWgSmVxxLvwGNtN-29">
          <mxGeometry relative="1" as="geometry" />
        </mxCell>
        <mxCell id="u115hhWgSmVxxLvwGNtN-31" style="edgeStyle=orthogonalEdgeStyle;rounded=0;orthogonalLoop=1;jettySize=auto;html=1;exitX=0.5;exitY=1;exitDx=0;exitDy=0;exitPerimeter=0;entryX=0;entryY=0.5;entryDx=0;entryDy=0;entryPerimeter=0;" edge="1" parent="1" source="u115hhWgSmVxxLvwGNtN-17" target="u115hhWgSmVxxLvwGNtN-29">
          <mxGeometry relative="1" as="geometry" />
        </mxCell>
        <mxCell id="u115hhWgSmVxxLvwGNtN-32" style="edgeStyle=orthogonalEdgeStyle;rounded=0;orthogonalLoop=1;jettySize=auto;html=1;exitX=0.5;exitY=1;exitDx=0;exitDy=0;exitPerimeter=0;entryX=0;entryY=0.5;entryDx=0;entryDy=0;entryPerimeter=0;" edge="1" parent="1" source="u115hhWgSmVxxLvwGNtN-29" target="u115hhWgSmVxxLvwGNtN-24">
          <mxGeometry relative="1" as="geometry" />
        </mxCell>
        <mxCell id="u115hhWgSmVxxLvwGNtN-33" style="edgeStyle=orthogonalEdgeStyle;rounded=0;orthogonalLoop=1;jettySize=auto;html=1;exitX=0.5;exitY=1;exitDx=0;exitDy=0;entryX=0.569;entryY=0.031;entryDx=0;entryDy=0;entryPerimeter=0;" edge="1" parent="1" source="u115hhWgSmVxxLvwGNtN-6" target="u115hhWgSmVxxLvwGNtN-7">
          <mxGeometry relative="1" as="geometry" />
        </mxCell>
        <mxCell id="u115hhWgSmVxxLvwGNtN-34" style="edgeStyle=orthogonalEdgeStyle;rounded=0;orthogonalLoop=1;jettySize=auto;html=1;exitX=0.5;exitY=1;exitDx=0;exitDy=0;exitPerimeter=0;entryX=0.5;entryY=0;entryDx=0;entryDy=0;entryPerimeter=0;" edge="1" parent="1" source="u115hhWgSmVxxLvwGNtN-7" target="u115hhWgSmVxxLvwGNtN-8">
          <mxGeometry relative="1" as="geometry" />
        </mxCell>
        <mxCell id="u115hhWgSmVxxLvwGNtN-35" style="edgeStyle=orthogonalEdgeStyle;rounded=0;orthogonalLoop=1;jettySize=auto;html=1;entryX=0.604;entryY=0.14;entryDx=0;entryDy=0;entryPerimeter=0;" edge="1" parent="1" source="u115hhWgSmVxxLvwGNtN-1" target="u115hhWgSmVxxLvwGNtN-3">
          <mxGeometry relative="1" as="geometry" />
        </mxCell>
        <mxCell id="u115hhWgSmVxxLvwGNtN-37" style="edgeStyle=orthogonalEdgeStyle;rounded=0;orthogonalLoop=1;jettySize=auto;html=1;exitX=0.5;exitY=1;exitDx=0;exitDy=0;entryX=0.492;entryY=0.26;entryDx=0;entryDy=0;entryPerimeter=0;" edge="1" parent="1" source="u115hhWgSmVxxLvwGNtN-3" target="u115hhWgSmVxxLvwGNtN-4">
          <mxGeometry relative="1" as="geometry" />
        </mxCell>
        <mxCell id="u115hhWgSmVxxLvwGNtN-38" style="edgeStyle=orthogonalEdgeStyle;rounded=0;orthogonalLoop=1;jettySize=auto;html=1;exitX=0.5;exitY=1;exitDx=0;exitDy=0;entryX=0.5;entryY=0.333;entryDx=0;entryDy=0;entryPerimeter=0;" edge="1" parent="1" source="u115hhWgSmVxxLvwGNtN-4" target="u115hhWgSmVxxLvwGNtN-5">
          <mxGeometry relative="1" as="geometry" />
        </mxCell>
        <mxCell id="u115hhWgSmVxxLvwGNtN-39" style="edgeStyle=orthogonalEdgeStyle;rounded=0;orthogonalLoop=1;jettySize=auto;html=1;exitX=0.5;exitY=1;exitDx=0;exitDy=0;entryX=0.401;entryY=0.048;entryDx=0;entryDy=0;entryPerimeter=0;" edge="1" parent="1" source="u115hhWgSmVxxLvwGNtN-5" target="u115hhWgSmVxxLvwGNtN-6">
          <mxGeometry relative="1" as="geometry" />
        </mxCell>
      </root>
    </mxGraphModel>
  </diagram>
</mxfile>
